<?xml version="1.0" encoding="UTF-8" standalone="no"?>
<!DOCTYPE svg PUBLIC "-//W3C//DTD SVG 1.1//EN" "http://www.w3.org/Graphics/SVG/1.1/DTD/svg11.dtd">
<svg width="100%" height="100%" viewBox="0 0 3524 3950" version="1.1" xmlns="http://www.w3.org/2000/svg" xmlns:xlink="http://www.w3.org/1999/xlink" xml:space="preserve" xmlns:serif="http://www.serif.com/" style="fill-rule:evenodd;clip-rule:evenodd;stroke-linejoin:round;stroke-miterlimit:10;">
    <g transform="matrix(1,0,0,1,-147,-25)">
        <g transform="matrix(2.80048,0,0,3.90625,116.49,0)">
            <g id="Bird" transform="matrix(2.0348,0,0,1.4588,-394.112,-34.9586)">
                <g id="Body" transform="matrix(-1,1.19894e-16,1.22465e-16,0.979009,262.88,669.274)">
                    <path d="M0,-336.924C26.429,-310.978 38.371,-303.393 57.856,-271.646C57.8,-286.528 66.739,-375.986 29.226,-416.052C5.22,-422.438 -193.238,-448.499 -316.197,-247.964C-312.725,-232.622 -303.235,-89.01 -419.38,3.223C-414.341,6.19 -305.932,73.01 -185.946,38.195C-192.969,15.541 -203.674,-5.501 -217.348,-24.236C-203.819,-17.281 -191.087,-8.984 -179.34,0.479C-183.696,-27.203 -194.614,-52.725 -210.46,-74.416C-172.464,-54.887 -142.272,-22.332 -125.788,17.355C-95.81,3.458 -68.373,-15.009 -44.364,-37.137C-49.84,-99.692 -73.278,-157.096 -109.506,-204.141C-116.144,-211.685 -130.431,-231.668 -138.658,-242.25C-141.019,-245.287 -142.882,-247.55 -143.92,-248.521C-110.794,-233.693 -41.357,-186.831 15.515,-111.909C22.984,-124.832 29.568,-138.326 35.18,-152.324C35.201,-154.173 29.811,-276.418 0,-336.924Z" style="fill:rgb(0,204,51);fill-rule:nonzero;stroke:black;stroke-width:10px;"/>
                </g>
                <g id="Head" transform="matrix(1,0,0,1,-143.03,-107.657)">
                    <g id="Face" transform="matrix(0.75,0,0,0.75,-2886.41,-3456)">
                        <path d="M4415.53,4912.63C4452.44,4857.71 4657.29,4705.82 4997.44,4870.66C4997.44,4870.66 4897.78,4864.74 4859.91,4894.42C4869.1,4904.39 4969.1,4993.98 4940.49,5137.06C4793.71,5183.18 4791.72,5288.47 4791.72,5288.47C4622.33,5065.31 4379.86,5095.94 4379.86,5095.94C4387.44,5081.23 4410.54,5015.07 4470.22,4978.25L4377.69,5006.86C4377.69,5006.86 4397.61,4943.42 4461.35,4911.77C4432.93,4911.94 4415.53,4912.63 4415.53,4912.63Z" style="fill:rgb(255,0,0);stroke:black;stroke-width:13.33px;stroke-linecap:round;"/>
                    </g>
                    <g id="Eye">
                        <g id="Sklera" transform="matrix(0.360928,0.0336799,-0.0433364,0.464411,-592.843,-2112.37)">
                            <path d="M3965.21,4854C3988.47,4804.69 4038.65,4770.53 4096.75,4770.53C4154.86,4770.53 4205.04,4804.69 4228.3,4854C4205.04,4903.3 4165.22,4914.82 4107.11,4914.82C4049.01,4914.82 3988.47,4903.3 3965.21,4854Z" style="fill:white;stroke:black;stroke-width:23.94px;stroke-linecap:round;"/>
                        </g>
                        <g id="Iris" transform="matrix(0.75,0,0,0.75,-2886.41,-3456)">
                            <path d="M4778.54,4937.8C4794.59,4947.72 4806.74,4965.48 4812.44,4987.04C4809.53,4993.16 4806.1,4998.82 4802.23,5003.93C4796.02,5008.7 4788.23,5011.55 4779.79,5011.55C4759.43,5011.55 4742.91,4995.02 4742.91,4974.66C4742.91,4954.72 4758.76,4938.46 4778.54,4937.8Z" style="stroke:black;stroke-width:13.33px;stroke-linecap:round;"/>
                        </g>
                    </g>
                    <g id="Mouth" transform="matrix(0.505391,-0.132082,-0.115048,0.774658,-5677.73,-16813.6)">
                        <path d="M18528.7,25336.4C18528.7,25336.4 18593.6,25372.1 18635.2,25355.7" style="fill:none;stroke:black;stroke-width:18.7px;stroke-linecap:round;"/>
                    </g>
                </g>
                <g id="Beak" transform="matrix(-1,9.13517e-17,1.37027e-16,1,657.103,274.825)">
                    <path d="M27.517,-151.875C-37.192,-72.554 -19.834,6.459 -19.8,6.591C-86.109,-24.671 -141.338,-13.855 -155.192,0C-152.816,-11.702 -149.396,-22.426 -145.155,-32.264C-111.409,-110.465 1.878,-142.476 27.517,-151.875Z" style="fill:rgb(255,204,102);fill-rule:nonzero;stroke:black;stroke-width:10px;"/>
                </g>
            </g>
        </g>
    </g>
</svg>
